<?xml version="1.0" ?><!DOCTYPE svg  PUBLIC '-//W3C//DTD SVG 1.1//EN'  'http://www.w3.org/Graphics/SVG/1.1/DTD/svg11.dtd'><svg enable-background="new 0 0 512 512" height="512px" id="Calque_1" version="1.1" viewBox="0 0 512 512" width="512px" xml:space="preserve" xmlns="http://www.w3.org/2000/svg" xmlns:xlink="http://www.w3.org/1999/xlink"><g><g id="XMLID_2_"><g><polygon fill="#FFC035" points="93.82,34.06 139.77,81.58 104.29,118.27    "/><polygon fill="#FFC035" points="372.23,81.59 372.22,81.58 418.18,34.06 407.71,118.27    "/><path d="M418.18,129.1H93.82L80.25,477.94h351.5L418.18,129.1z M340.56,213.8v34.93     c0,46.63-37.93,84.56-84.56,84.56s-84.56-37.93-84.56-84.56V213.8c-9.88-1.87-17.36-10.55-17.36-20.97     c0-11.8,9.57-21.36,21.36-21.36s21.36,9.56,21.36,21.36c0,10.42-7.48,19.1-17.36,20.97v34.93c0,42.22,34.34,76.56,76.56,76.56     c42.21,0,76.56-34.34,76.56-76.56V213.8c-9.88-1.87-17.36-10.55-17.36-20.97c0-11.8,9.57-21.36,21.36-21.36     s21.36,9.56,21.36,21.36C357.92,203.25,350.44,211.93,340.56,213.8z" fill="#FFC035"/><polygon fill="#C98B0E" points="418.18,34.06 372.22,81.58 372.23,81.59 369.17,129.1 142.83,129.1 139.77,81.58 93.82,34.06         "/><polygon opacity="0.1" points="139.77,94 370.53,107.97 369.17,129.1 142.83,129.1    "/><polygon fill="#99650B" points="407.71,118.27 418.18,129.1 369.17,129.1 372.23,81.59    "/><path d="M336.56,171.47c11.79,0,21.36,9.56,21.36,21.36c0,10.42-7.48,19.1-17.36,20.97v-20.97c0-2.21-1.79-4-4-4     c-2.21,0-4,1.79-4,4v20.97c-9.88-1.87-17.36-10.55-17.36-20.97C315.2,181.03,324.77,171.47,336.56,171.47z" fill="#ECEFF0"/><path d="M340.56,192.83v20.97c-1.3,0.25-2.63,0.38-4,0.38c-1.37,0-2.7-0.13-4-0.38v-20.97c0-2.21,1.79-4,4-4     C338.77,188.83,340.56,190.62,340.56,192.83z" fill="#526471"/><path d="M336.56,214.18c1.37,0,2.7-0.13,4-0.38v34.93c0,46.63-37.93,84.56-84.56,84.56s-84.56-37.93-84.56-84.56     V213.8c1.3,0.25,2.63,0.38,4,0.38s2.7-0.13,4-0.38v34.93c0,42.22,34.34,76.56,76.56,76.56c42.21,0,76.56-34.34,76.56-76.56V213.8     C333.86,214.05,335.19,214.18,336.56,214.18z" fill="#526471"/><path d="M175.44,171.47c11.79,0,21.36,9.56,21.36,21.36c0,10.42-7.48,19.1-17.36,20.97v-20.97c0-2.21-1.79-4-4-4     c-2.21,0-4,1.79-4,4v20.97c-9.88-1.87-17.36-10.55-17.36-20.97C154.08,181.03,163.65,171.47,175.44,171.47z" fill="#ECEFF0"/><path d="M179.44,192.83v20.97c-1.3,0.25-2.63,0.38-4,0.38s-2.7-0.13-4-0.38v-20.97c0-2.21,1.79-4,4-4     C177.65,188.83,179.44,190.62,179.44,192.83z" fill="#526471"/><polygon fill="#99650B" points="139.77,81.58 142.83,129.1 93.82,129.1 104.29,118.27    "/></g><g><polyline fill="none" points="418.18,129.1 431.75,477.94 80.25,477.94 93.82,129.1    "/><polyline fill="none" points="418.18,129.1 369.17,129.1 142.83,129.1 93.82,129.1    "/><line fill="none" x1="93.82" x2="418.18" y1="34.06" y2="34.06"/><line fill="none" x1="93.82" x2="139.77" y1="34.06" y2="81.58"/><polyline fill="none" points="139.77,81.58 104.29,118.27 93.82,129.1    "/><polyline fill="none" points="418.18,129.1 407.71,118.27 372.23,81.59 372.22,81.58    "/><line fill="none" x1="372.22" x2="418.18" y1="81.58" y2="34.06"/><path d="M171.44,213.8c-9.88-1.87-17.36-10.55-17.36-20.97c0-11.8,9.57-21.36,21.36-21.36     c11.79,0,21.36,9.56,21.36,21.36c0,10.42-7.48,19.1-17.36,20.97c-1.3,0.25-2.63,0.38-4,0.38S172.74,214.05,171.44,213.8z" fill="none"/><path d="M332.56,213.8c-9.88-1.87-17.36-10.55-17.36-20.97c0-11.8,9.57-21.36,21.36-21.36     c11.79,0,21.36,9.56,21.36,21.36c0,10.42-7.48,19.1-17.36,20.97c-1.3,0.25-2.63,0.38-4,0.38     C335.19,214.18,333.86,214.05,332.56,213.8z" fill="none"/><line fill="none" x1="139.77" x2="142.83" y1="81.58" y2="129.1"/><line fill="none" x1="93.82" x2="104.29" y1="34.06" y2="118.27"/><polyline fill="none" points="372.23,81.58 372.23,81.59 369.17,129.1    "/><line fill="none" x1="418.18" x2="407.71" y1="34.06" y2="118.27"/></g></g><linearGradient gradientUnits="userSpaceOnUse" id="SVGID_1_" x1="256" x2="431.75" y1="303.52" y2="303.52"><stop offset="0" style="stop-color:#000000"/><stop offset="1" style="stop-color:#FFFFFF;stop-opacity:0"/></linearGradient><path d="M431.75,477.94H256V333.29c46.63,0,84.56-37.93,84.56-84.56V213.8   c9.88-1.87,17.36-10.55,17.36-20.97c0-11.8-9.57-21.36-21.36-21.36s-21.36,9.56-21.36,21.36c0,10.42,7.48,19.1,17.36,20.97v34.93   c0,42.22-34.35,76.56-76.56,76.56V129.1h162.18L431.75,477.94z" fill="url(#SVGID_1_)" opacity="0.1"/></g></svg>